<?xml version="1.0" encoding="utf-8"?><svg viewBox="0 0 512 512" xmlns="http://www.w3.org/2000/svg" xmlns:xlink="http://www.w3.org/1999/xlink"><style>:root>svg{display:none}:root>svg:target{display:block}</style>
<svg><symbol id="html" viewBox="0 0 512 512"  ><g> <path fill="#E34F26" d="M71,460 L30,0 481,0 440,460 255,512"/>
  <path fill="#EF652A" d="M256,472 L405,431 440,37 256,37"/>
  <path fill="#EBEBEB" d="M256,208 L181,208 176,150 256,150 256,94 255,94 114,94 115,109 129,265 256,265zM256,355 L255,355 192,338 188,293 158,293 132,293 139,382 255,414 256,414z"/>
  <path fill="#FFF" d="M255,208 L255,265 325,265 318,338 255,355 255,414 371,382 372,372 385,223 387,208 371,208zM255,94 L255,129 255,150 255,150 392,150 392,150 392,150 393,138 396,109 397,94z"/>
</g></symbol>
<symbol id="css"  viewBox="0 0 512 512"><g>
<path fill="#264de4" d="M71.357 460.819L30.272 0h451.456l-41.129 460.746L255.724 512z"/>
	<path fill="#2965f1" d="M405.388 431.408l35.148-393.73H256v435.146z"/>
	<path fill="#ebebeb" d="M124.46 208.59l5.065 56.517H256V208.59zM119.419 150.715H256V94.197H114.281zM256 355.372l-.248.066-62.944-16.996-4.023-45.076h-56.736l7.919 88.741 115.772 32.14.26-.073z"/>
	<path fill="#fff" d="M255.805 208.59v56.517H325.4l-6.56 73.299-63.035 17.013v58.8l115.864-32.112.85-9.549 13.28-148.792 1.38-15.176 10.203-114.393H255.805v56.518h79.639L330.3 208.59z"/>
</g></symbol>
<symbol id="sass"  x="0px" y="0px" viewBox="0 0 547.8 410.6" enable-background="new 0 0 547.8 410.6" xml:space="preserve"><g><path fill="#CD6799" d="M471.4,236c-19.1,0.1-35.7,4.7-49.6,11.5c-5.1-10.1-10.2-19.1-11.1-25.7c-1-7.7-2.2-12.4-1-21.6
	c1.2-9.2,6.6-22.3,6.5-23.3s-1.2-5.7-12.2-5.8c-11-0.1-20.5,2.1-21.6,5c-1.1,2.9-3.2,9.5-4.6,16.3c-1.9,10-22,45.7-33.5,64.4
	c-3.7-7.3-6.9-13.7-7.6-18.8c-1-7.7-2.2-12.4-1-21.6c1.2-9.2,6.6-22.3,6.5-23.3c-0.1-1-1.2-5.7-12.2-5.8c-11-0.1-20.5,2.1-21.6,5
	c-1.1,2.9-2.3,9.7-4.6,16.3c-2.3,6.6-29,66.2-36,81.6c-3.6,7.9-6.7,14.2-8.9,18.5c0,0,0,0,0,0s-0.1,0.3-0.4,0.8
	c-1.9,3.7-3,5.7-3,5.7s0,0,0,0.1c-1.5,2.7-3.1,5.2-3.9,5.2c-0.6,0-1.7-7.2,0.2-17c4-20.7,13.5-52.9,13.4-54c0-0.6,1.8-6.2-6.2-9.1
	c-7.8-2.9-10.6,1.9-11.3,1.9c-0.7,0-1.2,1.7-1.2,1.7s8.7-36.2-16.6-36.2c-15.8,0-37.6,17.3-48.4,32.9c-6.8,3.7-21.3,11.6-36.8,20.1
	c-5.9,3.3-12,6.6-17.7,9.7c-0.4-0.4-0.8-0.9-1.2-1.3c-30.6-32.7-87.2-55.8-84.8-99.7c0.9-16,6.4-58,108.7-109
	C233.9,19,300.9,30.5,312.5,56c16.6,36.4-35.9,104-122.9,113.8c-33.2,3.7-50.6-9.1-55-13.9c-4.6-5-5.3-5.3-7-4.3c-2.8,1.5-1,6,0,8.6
	c2.6,6.8,13.3,18.8,31.4,24.7c16,5.2,54.9,8.1,102-10.1c52.7-20.4,93.9-77.1,81.8-124.6C330.7,2,250.7-13.9,175,13
	C130,29,81.2,54.2,46.1,87c-41.7,39-48.3,72.9-45.6,87.1c9.7,50.4,79.2,83.2,107,107.5c-1.4,0.8-2.7,1.5-3.8,2.1
	c-13.9,6.9-66.9,34.6-80.1,63.9c-15,33.2,2.4,57,13.9,60.2c35.7,9.9,72.4-7.9,92.1-37.3c19.7-29.4,17.3-67.6,8.2-85.1
	c-0.1-0.2-0.2-0.4-0.4-0.6c3.6-2.1,7.3-4.3,10.9-6.4c7.1-4.2,14.1-8.1,20.1-11.3c-3.4,9.3-5.9,20.4-7.1,36.4
	c-1.5,18.8,6.2,43.2,16.3,52.8c4.5,4.2,9.8,4.3,13.2,4.3c11.8,0,17.1-9.8,23-21.4c7.2-14.2,13.7-30.7,13.7-30.7s-8.1,44.6,13.9,44.6
	c8,0,16.1-10.4,19.7-15.7c0,0.1,0,0.1,0,0.1s0.2-0.3,0.6-1c0.8-1.3,1.3-2.1,1.3-2.1s0-0.1,0-0.2c3.2-5.6,10.4-18.3,21.1-39.4
	c13.8-27.2,27.1-61.2,27.1-61.2s1.2,8.3,5.3,22.1c2.4,8.1,7.4,17,11.4,25.6c-3.2,4.5-5.2,7-5.2,7s0,0,0.1,0.1
	c-2.6,3.4-5.4,7.1-8.5,10.7c-10.9,13-23.9,27.9-25.7,32.2c-2.1,5.1-1.6,8.8,2.4,11.8c2.9,2.2,8.1,2.5,13.4,2.2
	c9.8-0.7,16.7-3.1,20.1-4.6c5.3-1.9,11.5-4.8,17.3-9.1c10.7-7.9,17.2-19.2,16.6-34.1c-0.3-8.2-3-16.4-6.3-24.1
	c1-1.4,1.9-2.8,2.9-4.2c16.9-24.7,30-51.8,30-51.8s1.2,8.3,5.3,22.1c2,7,6.1,14.6,9.7,22c-15.9,12.9-25.7,27.9-29.2,37.7
	c-6.3,18.2-1.4,26.4,7.9,28.3c4.2,0.9,10.2-1.1,14.6-3c5.6-1.8,12.2-4.9,18.5-9.5c10.7-7.9,21-18.9,20.4-33.8
	c-0.3-6.8-2.1-13.5-4.6-20c13.5-5.6,30.9-8.7,53.1-6.1c47.6,5.6,57,35.3,55.2,47.8c-1.8,12.5-11.8,19.3-15.1,21.4
	c-3.3,2.1-4.4,2.8-4.1,4.3c0.4,2.2,2,2.1,4.8,1.7c3.9-0.7,25-10.1,25.9-33.1C548.9,267.8,520.9,235.7,471.4,236z M104.2,359.8
	C88.4,377,66.4,383.5,56.9,378c-10.2-5.9-6.2-31.3,13.2-49.5c11.8-11.1,27-21.4,37.1-27.7c2.3-1.4,5.7-3.4,9.8-5.9
	c0.7-0.4,1.1-0.6,1.1-0.6l0,0c0.8-0.5,1.6-1,2.4-1.5C127.6,318.8,120.8,341.7,104.2,359.8z M219.2,281.6c-5.5,13.4-17,47.7-24,45.8
	c-6-1.6-9.7-27.6-1.2-53.3c4.3-12.9,13.4-28.3,18.7-34.3c8.6-9.6,18.1-12.8,20.4-8.9C236,236,222.6,273.2,219.2,281.6z M314.1,327
	c-2.3,1.2-4.5,2-5.5,1.4c-0.7-0.4,1-2,1-2s11.9-12.8,16.6-18.6c2.7-3.4,5.9-7.4,9.3-11.9c0,0.4,0,0.9,0,1.3
	C335.5,312.5,320.7,322.8,314.1,327z M387.3,310.3c-1.7-1.2-1.4-5.2,4.3-17.7c2.2-4.9,7.4-13.1,16.3-21c1,3.2,1.7,6.3,1.6,9.2
	C409.4,300.1,395.6,307.3,387.3,310.3z"/>
<g></g><g></g><g></g><g></g><g></g><g></g></g></symbol>
<symbol id="vue"  viewBox="0 0 261.76 226.69"><g ><g transform="matrix(1.3333 0 0 -1.3333 -76.311 313.34)"><g transform="translate(178.06 235.01)"><path d="m0 0-22.669-39.264-22.669 39.264h-75.491l98.16-170.02 98.16 170.02z" fill="#41b883"/></g><g transform="translate(178.06 235.01)"><path d="m0 0-22.669-39.264-22.669 39.264h-36.227l58.896-102.01 58.896 102.01z" fill="#34495e"/></g></g></g></symbol>
<symbol id="java"  viewBox="0 0 630 630"><g><rect width="630" height="630" fill="#f7df1e"/>
<path d="m423.2 492.19c12.69 20.72 29.2 35.95 58.4 35.95 24.53 0 40.2-12.26 40.2-29.2 0-20.3-16.1-27.49-43.1-39.3l-14.8-6.35c-42.72-18.2-71.1-41-71.1-89.2 0-44.4 33.83-78.2 86.7-78.2 37.64 0 64.7 13.1 84.2 47.4l-46.1 29.6c-10.15-18.2-21.1-25.37-38.1-25.37-17.34 0-28.33 11-28.33 25.37 0 17.76 11 24.95 36.4 35.95l14.8 6.34c50.3 21.57 78.7 43.56 78.7 93 0 53.3-41.87 82.5-98.1 82.5-54.98 0-90.5-26.2-107.88-60.54zm-209.13 5.13c9.3 16.5 17.76 30.45 38.1 30.45 19.45 0 31.72-7.61 31.72-37.2v-201.3h59.2v202.1c0 61.3-35.94 89.2-88.4 89.2-47.4 0-74.85-24.53-88.81-54.075z"/>
</g></symbol>
<symbol id="git"  viewBox="0 0 256.000000 256.000000"
 preserveAspectRatio="xMidYMid meet">
<g transform="translate(0.000000,256.000000) scale(0.100000,-0.100000)"
 stroke="none">
<path d="M145 2541 c-52 -23 -103 -74 -126 -126 -18 -38 -19 -96 -19 -1135 0
-1039 1 -1097 19 -1135 23 -52 74 -103 126 -126 38 -18 96 -19 1135 -19 1039
0 1097 1 1135 19 52 23 103 74 126 126 18 38 19 96 19 1135 0 1039 -1 1097
-19 1135 -23 52 -74 103 -126 126 -38 18 -96 19 -1135 19 -1039 0 -1097 -1
-1135 -19z m2235 -108 c19 -12 44 -37 55 -55 20 -32 20 -51 20 -1098 0 -1047
0 -1066 -20 -1098 -11 -18 -36 -43 -55 -55 l-35 -22 -1065 0 c-1047 0 -1066 0
-1098 20 -18 11 -43 36 -55 55 l-22 35 0 1065 0 1065 22 35 c24 39 53 60 98
71 17 4 500 6 1075 6 l1045 -2 35 -22z"/>
<path d="M648 2339 c-25 -14 -24 -75 1 -89 13 -6 198 -10 531 -10 333 0 518 4
531 10 26 15 26 75 0 90 -27 14 -1039 13 -1063 -1z"/>
<path d="M1130 2024 c-73 -14 -194 -59 -262 -96 -192 -106 -336 -283 -406
-498 -25 -79 -27 -97 -27 -250 0 -145 3 -174 23 -240 116 -371 438 -610 822
-610 384 0 706 239 822 610 20 66 23 95 23 240 0 153 -2 171 -27 250 -88 272
-293 479 -563 566 -69 23 -101 27 -230 29 -82 2 -161 1 -175 -1z m377 -137
c231 -80 400 -249 480 -480 34 -98 43 -291 18 -387 -61 -235 -211 -420 -418
-516 l-52 -24 -5 143 c-3 78 -9 149 -13 158 -7 13 4 21 50 38 112 42 209 137
249 244 14 39 19 78 19 157 0 99 -2 109 -34 175 -30 62 -34 80 -36 160 -2 133
-29 175 -109 175 -39 0 -68 -9 -126 -38 -64 -33 -80 -37 -110 -30 -45 11 -235
11 -280 0 -30 -7 -46 -3 -110 30 -58 29 -87 38 -126 38 -80 0 -107 -42 -109
-175 -2 -80 -6 -98 -36 -160 -32 -66 -34 -76 -34 -175 0 -79 5 -118 19 -157
40 -106 137 -202 247 -243 l56 -21 -12 -42 c-11 -39 -15 -42 -50 -45 -35 -3
-42 1 -109 71 -39 40 -84 79 -99 85 -63 27 -127 7 -127 -39 0 -27 35 -59 64
-59 17 0 41 -19 83 -67 66 -75 115 -102 186 -103 l47 0 0 -59 0 -60 -30 10
c-45 16 -149 82 -206 130 -107 92 -195 235 -234 382 -31 113 -25 296 13 404
80 233 262 413 486 481 96 30 103 31 246 27 108 -2 142 -7 202 -28z m-502
-308 l79 -42 65 13 c36 7 95 13 131 13 36 0 95 -6 131 -13 l65 -13 79 42 c43
22 82 41 86 41 14 0 20 -75 10 -120 -9 -41 -7 -48 32 -119 41 -73 42 -79 42
-166 0 -78 -4 -97 -27 -141 -48 -90 -132 -150 -247 -175 -53 -11 -91 -37 -91
-63 0 -7 11 -30 25 -50 34 -51 44 -102 45 -227 l0 -106 -31 -7 c-41 -8 -197
-8 -238 0 l-31 7 0 106 c1 125 11 176 45 227 14 20 25 43 25 50 0 26 -38 52
-91 63 -115 25 -199 85 -247 175 -23 44 -27 63 -27 141 0 87 1 93 42 166 39
71 41 78 32 119 -10 45 -4 120 10 120 4 0 43 -19 86 -41z"/>
</g>
</symbol>
<symbol id="telegram"  viewBox="0 0 256.000000 256.000000"
 preserveAspectRatio="xMidYMid meet">
<g transform="translate(0.000000,256.000000) scale(0.100000,-0.100000)"
 stroke="none">
<path d="M145 2541 c-52 -23 -103 -74 -126 -126 -18 -38 -19 -96 -19 -1135 0
-1039 1 -1097 19 -1135 23 -52 74 -103 126 -126 38 -18 96 -19 1135 -19 1039
0 1097 1 1135 19 52 23 103 74 126 126 18 38 19 96 19 1135 0 1039 -1 1097
-19 1135 -23 52 -74 103 -126 126 -38 18 -96 19 -1135 19 -1039 0 -1097 -1
-1135 -19z m2235 -108 c19 -12 44 -37 55 -55 20 -32 20 -51 20 -1098 0 -1047
0 -1066 -20 -1098 -11 -18 -36 -43 -55 -55 l-35 -22 -1065 0 c-1047 0 -1066 0
-1098 20 -18 11 -43 36 -55 55 l-22 35 0 1065 0 1065 22 35 c24 39 53 60 98
71 17 4 500 6 1075 6 l1045 -2 35 -22z"/>
<path d="M648 2339 c-25 -14 -24 -75 1 -89 13 -6 198 -10 531 -10 333 0 518 4
531 10 26 15 26 75 0 90 -27 14 -1039 13 -1063 -1z"/>
<path d="M1247 1570 c-405 -158 -744 -293 -752 -300 -22 -18 -19 -66 5 -83 11
-8 82 -38 158 -67 l138 -53 89 -224 c49 -123 95 -233 103 -244 29 -42 60 -26
182 96 l116 116 208 -166 c214 -169 246 -186 276 -150 11 14 290 1278 290
1316 0 21 -32 49 -56 48 -10 0 -351 -130 -757 -289z m558 -431 c-58 -272 -107
-497 -108 -501 -1 -4 -109 77 -239 180 -130 103 -236 190 -235 193 3 9 681
628 685 624 1 -1 -45 -225 -103 -496z m-440 352 c-6 -4 -127 -78 -271 -163
l-261 -155 -67 25 c-36 13 -66 27 -66 31 0 4 150 66 333 138 368 145 345 136
332 124z m160 -48 c-16 -14 -123 -112 -237 -216 -182 -166 -209 -194 -219
-231 -32 -126 -43 -162 -49 -169 -3 -4 -30 52 -59 124 -28 72 -49 134 -46 137
8 8 629 380 635 381 3 0 -8 -11 -25 -26z"/>
</g>
</symbol>
<symbol id="figma" x="0px" y="0px"
	 viewBox="1147.5 -20 400 400" style="enable-background:new 1147.5 -20 400 400;" xml:space="preserve">
     <g><path class="st0" fill="#353535" d="M1487,371.5h-279c-28.6,0-52-23.4-52-52v-279c0-28.6,23.4-52,52-52h279c28.6,0,52,23.4,52,52v279
	C1539,348.1,1515.6,371.5,1487,371.5z"/>
<g>
	<path id="path0_fill" class="st1" fill="#0ACF83" d="M1307.5,300c22.1,0,40-17.9,40-40v-40h-40c-22.1,0-40,17.9-40,40
		C1267.5,282.1,1285.4,300,1307.5,300z"/>
	<path id="path1_fill" class="st2" fill="#A259FF" d="M1267.5,180c0-22.1,17.9-40,40-40h40v80h-40C1285.4,220,1267.5,202.1,1267.5,180z"/>
	<path id="path1_fill_1_" class="st3" fill="#F24E1E" d="M1267.5,100c0-22.1,17.9-40,40-40h40v80h-40C1285.4,140,1267.5,122.1,1267.5,100z"/>
	<path id="path2_fill" class="st4" fill="#FF7262" d="M1347.5,60h40c22.1,0,40,17.9,40,40s-17.9,40-40,40h-40V60z"/>
	<path id="path3_fill" class="st5" fill="#1ABCFE" d="M1427.5,180c0,22.1-17.9,40-40,40s-40-17.9-40-40c0-22.1,17.9-40,40-40
		S1427.5,157.9,1427.5,180z"/>
</g></g></symbol>
</svg>