<?xml version="1.0" encoding="utf-8"?><svg viewBox="0 0 512 512" xmlns="http://www.w3.org/2000/svg" xmlns:xlink="http://www.w3.org/1999/xlink"><style>:root>svg{display:none}:root>svg:target{display:block}</style>
<svg><symbol id="html" viewBox="0 0 512 512"  ><g> <path fill="#E34F26" d="M71,460 L30,0 481,0 440,460 255,512"/>
  <path fill="#EF652A" d="M256,472 L405,431 440,37 256,37"/>
  <path fill="#EBEBEB" d="M256,208 L181,208 176,150 256,150 256,94 255,94 114,94 115,109 129,265 256,265zM256,355 L255,355 192,338 188,293 158,293 132,293 139,382 255,414 256,414z"/>
  <path fill="#FFF" d="M255,208 L255,265 325,265 318,338 255,355 255,414 371,382 372,372 385,223 387,208 371,208zM255,94 L255,129 255,150 255,150 392,150 392,150 392,150 393,138 396,109 397,94z"/>
</g></symbol>
<symbol id="css"  viewBox="0 0 512 512"><g>
<path fill="#264de4" d="M71.357 460.819L30.272 0h451.456l-41.129 460.746L255.724 512z"/>
	<path fill="#2965f1" d="M405.388 431.408l35.148-393.73H256v435.146z"/>
	<path fill="#ebebeb" d="M124.46 208.59l5.065 56.517H256V208.59zM119.419 150.715H256V94.197H114.281zM256 355.372l-.248.066-62.944-16.996-4.023-45.076h-56.736l7.919 88.741 115.772 32.14.26-.073z"/>
	<path fill="#fff" d="M255.805 208.59v56.517H325.4l-6.56 73.299-63.035 17.013v58.8l115.864-32.112.85-9.549 13.28-148.792 1.38-15.176 10.203-114.393H255.805v56.518h79.639L330.3 208.59z"/>
</g></symbol>
<symbol id="sass"  x="0px" y="0px" viewBox="0 0 547.8 410.6" enable-background="new 0 0 547.8 410.6" xml:space="preserve"><g><path fill="#CD6799" d="M471.4,236c-19.1,0.1-35.7,4.7-49.6,11.5c-5.1-10.1-10.2-19.1-11.1-25.7c-1-7.7-2.2-12.4-1-21.6
	c1.2-9.2,6.6-22.3,6.5-23.3s-1.2-5.7-12.2-5.8c-11-0.1-20.5,2.1-21.6,5c-1.1,2.9-3.2,9.5-4.6,16.3c-1.9,10-22,45.7-33.5,64.4
	c-3.7-7.3-6.9-13.7-7.6-18.8c-1-7.7-2.2-12.4-1-21.6c1.2-9.2,6.6-22.3,6.5-23.3c-0.1-1-1.2-5.7-12.2-5.8c-11-0.1-20.5,2.1-21.6,5
	c-1.1,2.9-2.3,9.7-4.6,16.3c-2.3,6.6-29,66.2-36,81.6c-3.6,7.9-6.7,14.2-8.9,18.5c0,0,0,0,0,0s-0.1,0.3-0.4,0.8
	c-1.9,3.7-3,5.7-3,5.7s0,0,0,0.1c-1.5,2.7-3.1,5.2-3.9,5.2c-0.6,0-1.7-7.2,0.2-17c4-20.7,13.5-52.9,13.4-54c0-0.6,1.8-6.2-6.2-9.1
	c-7.8-2.9-10.6,1.9-11.3,1.9c-0.7,0-1.2,1.7-1.2,1.7s8.7-36.2-16.6-36.2c-15.8,0-37.6,17.3-48.4,32.9c-6.8,3.7-21.3,11.6-36.8,20.1
	c-5.9,3.3-12,6.6-17.7,9.7c-0.4-0.4-0.8-0.9-1.2-1.3c-30.6-32.7-87.2-55.8-84.8-99.7c0.9-16,6.4-58,108.7-109
	C233.9,19,300.9,30.5,312.5,56c16.6,36.4-35.9,104-122.9,113.8c-33.2,3.7-50.6-9.1-55-13.9c-4.6-5-5.3-5.3-7-4.3c-2.8,1.5-1,6,0,8.6
	c2.6,6.8,13.3,18.8,31.4,24.7c16,5.2,54.9,8.1,102-10.1c52.7-20.4,93.9-77.1,81.8-124.6C330.7,2,250.7-13.9,175,13
	C130,29,81.2,54.2,46.1,87c-41.7,39-48.3,72.9-45.6,87.1c9.7,50.4,79.2,83.2,107,107.5c-1.4,0.8-2.7,1.5-3.8,2.1
	c-13.9,6.9-66.9,34.6-80.1,63.9c-15,33.2,2.4,57,13.9,60.2c35.7,9.9,72.4-7.9,92.1-37.3c19.7-29.4,17.3-67.6,8.2-85.1
	c-0.1-0.2-0.2-0.4-0.4-0.6c3.6-2.1,7.3-4.3,10.9-6.4c7.1-4.2,14.1-8.1,20.1-11.3c-3.4,9.3-5.9,20.4-7.1,36.4
	c-1.5,18.8,6.2,43.2,16.3,52.8c4.5,4.2,9.8,4.3,13.2,4.3c11.8,0,17.1-9.8,23-21.4c7.2-14.2,13.7-30.7,13.7-30.7s-8.1,44.6,13.9,44.6
	c8,0,16.1-10.4,19.7-15.7c0,0.1,0,0.1,0,0.1s0.2-0.3,0.6-1c0.8-1.3,1.3-2.1,1.3-2.1s0-0.1,0-0.2c3.2-5.6,10.4-18.3,21.1-39.4
	c13.8-27.2,27.1-61.2,27.1-61.2s1.2,8.3,5.3,22.1c2.4,8.1,7.4,17,11.4,25.6c-3.2,4.5-5.2,7-5.2,7s0,0,0.1,0.1
	c-2.6,3.4-5.4,7.1-8.5,10.7c-10.9,13-23.9,27.9-25.7,32.2c-2.1,5.1-1.6,8.8,2.4,11.8c2.9,2.2,8.1,2.5,13.4,2.2
	c9.8-0.7,16.7-3.1,20.1-4.6c5.3-1.9,11.5-4.8,17.3-9.1c10.7-7.9,17.2-19.2,16.6-34.1c-0.3-8.2-3-16.4-6.3-24.1
	c1-1.4,1.9-2.8,2.9-4.2c16.9-24.7,30-51.8,30-51.8s1.2,8.3,5.3,22.1c2,7,6.1,14.6,9.7,22c-15.9,12.9-25.7,27.9-29.2,37.7
	c-6.3,18.2-1.4,26.4,7.9,28.3c4.2,0.9,10.2-1.1,14.6-3c5.6-1.8,12.2-4.9,18.5-9.5c10.7-7.9,21-18.9,20.4-33.8
	c-0.3-6.8-2.1-13.5-4.6-20c13.5-5.6,30.9-8.7,53.1-6.1c47.6,5.6,57,35.3,55.2,47.8c-1.8,12.5-11.8,19.3-15.1,21.4
	c-3.3,2.1-4.4,2.8-4.1,4.3c0.4,2.2,2,2.1,4.8,1.7c3.9-0.7,25-10.1,25.9-33.1C548.9,267.8,520.9,235.7,471.4,236z M104.2,359.8
	C88.4,377,66.4,383.5,56.9,378c-10.2-5.9-6.2-31.3,13.2-49.5c11.8-11.1,27-21.4,37.1-27.7c2.3-1.4,5.7-3.4,9.8-5.9
	c0.7-0.4,1.1-0.6,1.1-0.6l0,0c0.8-0.5,1.6-1,2.4-1.5C127.6,318.8,120.8,341.7,104.2,359.8z M219.2,281.6c-5.5,13.4-17,47.7-24,45.8
	c-6-1.6-9.7-27.6-1.2-53.3c4.3-12.9,13.4-28.3,18.7-34.3c8.6-9.6,18.1-12.8,20.4-8.9C236,236,222.6,273.2,219.2,281.6z M314.1,327
	c-2.3,1.2-4.5,2-5.5,1.4c-0.7-0.4,1-2,1-2s11.9-12.8,16.6-18.6c2.7-3.4,5.9-7.4,9.3-11.9c0,0.4,0,0.9,0,1.3
	C335.5,312.5,320.7,322.8,314.1,327z M387.3,310.3c-1.7-1.2-1.4-5.2,4.3-17.7c2.2-4.9,7.4-13.1,16.3-21c1,3.2,1.7,6.3,1.6,9.2
	C409.4,300.1,395.6,307.3,387.3,310.3z"/>
<g></g><g></g><g></g><g></g><g></g><g></g></g></symbol>
<symbol id="vue"  viewBox="0 0 261.76 226.69"><g ><g transform="matrix(1.3333 0 0 -1.3333 -76.311 313.34)"><g transform="translate(178.06 235.01)"><path d="m0 0-22.669-39.264-22.669 39.264h-75.491l98.16-170.02 98.16 170.02z" fill="#41b883"/></g><g transform="translate(178.06 235.01)"><path d="m0 0-22.669-39.264-22.669 39.264h-36.227l58.896-102.01 58.896 102.01z" fill="#34495e"/></g></g></g></symbol>
<symbol id="java"  viewBox="0 0 630 630"><g><rect width="630" height="630" fill="#f7df1e"/>
<path d="m423.2 492.19c12.69 20.72 29.2 35.95 58.4 35.95 24.53 0 40.2-12.26 40.2-29.2 0-20.3-16.1-27.49-43.1-39.3l-14.8-6.35c-42.72-18.2-71.1-41-71.1-89.2 0-44.4 33.83-78.2 86.7-78.2 37.64 0 64.7 13.1 84.2 47.4l-46.1 29.6c-10.15-18.2-21.1-25.37-38.1-25.37-17.34 0-28.33 11-28.33 25.37 0 17.76 11 24.95 36.4 35.95l14.8 6.34c50.3 21.57 78.7 43.56 78.7 93 0 53.3-41.87 82.5-98.1 82.5-54.98 0-90.5-26.2-107.88-60.54zm-209.13 5.13c9.3 16.5 17.76 30.45 38.1 30.45 19.45 0 31.72-7.61 31.72-37.2v-201.3h59.2v202.1c0 61.3-35.94 89.2-88.4 89.2-47.4 0-74.85-24.53-88.81-54.075z"/>
</g></symbol>
<symbol id="git"  viewBox="0 0 256.000000 256.000000"
 preserveAspectRatio="xMidYMid meet">
<g transform="translate(0.000000,256.000000) scale(0.100000,-0.100000)"
 stroke="none">
<path d="M145 2541 c-52 -23 -103 -74 -126 -126 -18 -38 -19 -96 -19 -1135 0
-1039 1 -1097 19 -1135 23 -52 74 -103 126 -126 38 -18 96 -19 1135 -19 1039
0 1097 1 1135 19 52 23 103 74 126 126 18 38 19 96 19 1135 0 1039 -1 1097
-19 1135 -23 52 -74 103 -126 126 -38 18 -96 19 -1135 19 -1039 0 -1097 -1
-1135 -19z m2235 -108 c19 -12 44 -37 55 -55 20 -32 20 -51 20 -1098 0 -1047
0 -1066 -20 -1098 -11 -18 -36 -43 -55 -55 l-35 -22 -1065 0 c-1047 0 -1066 0
-1098 20 -18 11 -43 36 -55 55 l-22 35 0 1065 0 1065 22 35 c24 39 53 60 98
71 17 4 500 6 1075 6 l1045 -2 35 -22z"/>
<path d="M648 2339 c-25 -14 -24 -75 1 -89 13 -6 198 -10 531 -10 333 0 518 4
531 10 26 15 26 75 0 90 -27 14 -1039 13 -1063 -1z"/>
<path d="M1130 2024 c-73 -14 -194 -59 -262 -96 -192 -106 -336 -283 -406
-498 -25 -79 -27 -97 -27 -250 0 -145 3 -174 23 -240 116 -371 438 -610 822
-610 384 0 706 239 822 610 20 66 23 95 23 240 0 153 -2 171 -27 250 -88 272
-293 479 -563 566 -69 23 -101 27 -230 29 -82 2 -161 1 -175 -1z m377 -137
c231 -80 400 -249 480 -480 34 -98 43 -291 18 -387 -61 -235 -211 -420 -418
-516 l-52 -24 -5 143 c-3 78 -9 149 -13 158 -7 13 4 21 50 38 112 42 209 137
249 244 14 39 19 78 19 157 0 99 -2 109 -34 175 -30 62 -34 80 -36 160 -2 133
-29 175 -109 175 -39 0 -68 -9 -126 -38 -64 -33 -80 -37 -110 -30 -45 11 -235
11 -280 0 -30 -7 -46 -3 -110 30 -58 29 -87 38 -126 38 -80 0 -107 -42 -109
-175 -2 -80 -6 -98 -36 -160 -32 -66 -34 -76 -34 -175 0 -79 5 -118 19 -157
40 -106 137 -202 247 -243 l56 -21 -12 -42 c-11 -39 -15 -42 -50 -45 -35 -3
-42 1 -109 71 -39 40 -84 79 -99 85 -63 27 -127 7 -127 -39 0 -27 35 -59 64
-59 17 0 41 -19 83 -67 66 -75 115 -102 186 -103 l47 0 0 -59 0 -60 -30 10
c-45 16 -149 82 -206 130 -107 92 -195 235 -234 382 -31 113 -25 296 13 404
80 233 262 413 486 481 96 30 103 31 246 27 108 -2 142 -7 202 -28z m-502
-308 l79 -42 65 13 c36 7 95 13 131 13 36 0 95 -6 131 -13 l65 -13 79 42 c43
22 82 41 86 41 14 0 20 -75 10 -120 -9 -41 -7 -48 32 -119 41 -73 42 -79 42
-166 0 -78 -4 -97 -27 -141 -48 -90 -132 -150 -247 -175 -53 -11 -91 -37 -91
-63 0 -7 11 -30 25 -50 34 -51 44 -102 45 -227 l0 -106 -31 -7 c-41 -8 -197
-8 -238 0 l-31 7 0 106 c1 125 11 176 45 227 14 20 25 43 25 50 0 26 -38 52
-91 63 -115 25 -199 85 -247 175 -23 44 -27 63 -27 141 0 87 1 93 42 166 39
71 41 78 32 119 -10 45 -4 120 10 120 4 0 43 -19 86 -41z"/>
</g>
</symbol>
<symbol id="telegram"  viewBox="0 0 256.000000 256.000000"
 preserveAspectRatio="xMidYMid meet">
<g transform="translate(0.000000,256.000000) scale(0.100000,-0.100000)"
 stroke="none">
<path d="M145 2541 c-52 -23 -103 -74 -126 -126 -18 -38 -19 -96 -19 -1135 0
-1039 1 -1097 19 -1135 23 -52 74 -103 126 -126 38 -18 96 -19 1135 -19 1039
0 1097 1 1135 19 52 23 103 74 126 126 18 38 19 96 19 1135 0 1039 -1 1097
-19 1135 -23 52 -74 103 -126 126 -38 18 -96 19 -1135 19 -1039 0 -1097 -1
-1135 -19z m2235 -108 c19 -12 44 -37 55 -55 20 -32 20 -51 20 -1098 0 -1047
0 -1066 -20 -1098 -11 -18 -36 -43 -55 -55 l-35 -22 -1065 0 c-1047 0 -1066 0
-1098 20 -18 11 -43 36 -55 55 l-22 35 0 1065 0 1065 22 35 c24 39 53 60 98
71 17 4 500 6 1075 6 l1045 -2 35 -22z"/>
<path d="M648 2339 c-25 -14 -24 -75 1 -89 13 -6 198 -10 531 -10 333 0 518 4
531 10 26 15 26 75 0 90 -27 14 -1039 13 -1063 -1z"/>
<path d="M1247 1570 c-405 -158 -744 -293 -752 -300 -22 -18 -19 -66 5 -83 11
-8 82 -38 158 -67 l138 -53 89 -224 c49 -123 95 -233 103 -244 29 -42 60 -26
182 96 l116 116 208 -166 c214 -169 246 -186 276 -150 11 14 290 1278 290
1316 0 21 -32 49 -56 48 -10 0 -351 -130 -757 -289z m558 -431 c-58 -272 -107
-497 -108 -501 -1 -4 -109 77 -239 180 -130 103 -236 190 -235 193 3 9 681
628 685 624 1 -1 -45 -225 -103 -496z m-440 352 c-6 -4 -127 -78 -271 -163
l-261 -155 -67 25 c-36 13 -66 27 -66 31 0 4 150 66 333 138 368 145 345 136
332 124z m160 -48 c-16 -14 -123 -112 -237 -216 -182 -166 -209 -194 -219
-231 -32 -126 -43 -162 -49 -169 -3 -4 -30 52 -59 124 -28 72 -49 134 -46 137
8 8 629 380 635 381 3 0 -8 -11 -25 -26z"/>
</g>
</symbol>
<symbol id="figma" x="0px" y="0px"
	 viewBox="1147.5 -20 400 400" style="enable-background:new 1147.5 -20 400 400;" xml:space="preserve">
     <g><path class="st0" fill="#353535" d="M1487,371.5h-279c-28.6,0-52-23.4-52-52v-279c0-28.6,23.4-52,52-52h279c28.6,0,52,23.4,52,52v279
	C1539,348.1,1515.6,371.5,1487,371.5z"/>
<g>
	<path id="path0_fill" class="st1" fill="#0ACF83" d="M1307.5,300c22.1,0,40-17.9,40-40v-40h-40c-22.1,0-40,17.9-40,40
		C1267.5,282.1,1285.4,300,1307.5,300z"/>
	<path id="path1_fill" class="st2" fill="#A259FF" d="M1267.5,180c0-22.1,17.9-40,40-40h40v80h-40C1285.4,220,1267.5,202.1,1267.5,180z"/>
	<path id="path1_fill_1_" class="st3" fill="#F24E1E" d="M1267.5,100c0-22.1,17.9-40,40-40h40v80h-40C1285.4,140,1267.5,122.1,1267.5,100z"/>
	<path id="path2_fill" class="st4" fill="#FF7262" d="M1347.5,60h40c22.1,0,40,17.9,40,40s-17.9,40-40,40h-40V60z"/>
	<path id="path3_fill" class="st5" fill="#1ABCFE" d="M1427.5,180c0,22.1-17.9,40-40,40s-40-17.9-40-40c0-22.1,17.9-40,40-40
		S1427.5,157.9,1427.5,180z"/>
</g></g></symbol>
<symbol id="codewars" fill="#ffffff" viewBox="0 0 14 14" >
<g id="SVGRepo_bgCarrier" stroke-width="0"></g><g id="SVGRepo_tracerCarrier" stroke-linecap="round" stroke-linejoin="round"></g><g id="SVGRepo_iconCarrier"><path d="m 1.350875,7.0945856 -0.0401,-0.02005 C 1.2205513,7.0244116 1.150377,6.9492246 1.1002525,6.8539886 1.0300781,6.7236646 1.0000034,6.6033656 1.0000034,6.4780546 l 0.010025,-0.06516 c 0,-0.100249 0.025062,-0.190473 0.070174,-0.275685 l 0.0401,-0.07519 c 0.02005,-0.0401 0.050124,-0.07519 0.075187,-0.110273 0.030075,-0.03509 0.035087,-0.0802 0.025062,-0.120299 l -0.025062,-0.0802 c -0.030075,-0.100248 -0.050125,-0.200497 -0.050125,-0.300746 l -0.015037,-0.06015 c 0,-0.110274 0.030075,-0.220548 0.100249,-0.300747 l 0.050125,-0.06516 c 0.035087,-0.05012 0.090224,-0.0802 0.1503735,-0.100249 0.050124,-0.01504 0.085212,-0.06516 0.090224,-0.125311 l 0.010025,-0.170423 c 0,-0.135337 0.065162,-0.260648 0.1654109,-0.350872 l 0.1202979,-0.09022 c 0.025062,-0.02506 0.050124,-0.05012 0.070174,-0.09022 0.025062,-0.03008 0.030075,-0.07017 0.025062,-0.100249 -0.010025,-0.05012 0,-0.06516 0.025062,-0.07017 0.080199,0.03007 0.1303236,0.02005 0.1654108,-0.02005 l 0.065162,-0.08521 0.1804482,-0.200498 c 0.050125,-0.05012 0.070174,-0.140349 0.0401,-0.210523 l -0.060148,-0.130324 c -0.010025,-0.03007 0,-0.06516 0.025062,-0.07519 0.065162,0 0.1102739,0.02506 0.1303237,0.06516 l 0.02005,0.03509 c 0.030075,0.06015 0.100249,0.09022 0.1503735,0.06516 0.1102739,-0.0401 0.200498,-0.05013 0.2857097,-0.05013 l 0.1603984,0 c 0.1102739,0 0.200498,-0.07519 0.2205478,-0.190473 0.02005,-0.140349 0.070174,-0.250623 0.1403486,-0.325809 0.075187,-0.08521 0.1603984,-0.150374 0.2606474,-0.200498 0.1303238,-0.07017 0.210523,-0.170424 0.2355852,-0.300747 0.035087,-0.160399 0.1202988,-0.275685 0.2355852,-0.350872 l 0.3809462,-0.215535 0.1102739,-0.06516 c 0.065162,-0.0401 0.1253113,-0.09022 0.1754358,-0.150374 L 4.95984,1.4004496 c 0.050124,-0.05012 0.100249,-0.08521 0.1603984,-0.100249 0.050124,-0.01504 0.1202988,-0.02506 0.1804482,-0.02005 l 0.200498,0.01504 c 0.100249,0 0.1804482,0.02506 0.2606474,0.06015 l 0.050124,0.02506 c 0.050124,0.02005 0.1002491,0.01003 0.1253113,-0.02506 l 0.045112,-0.02506 0.2155353,-0.22556 c 0.050124,-0.05012 0.1102739,-0.07017 0.1754358,-0.06015 0.065162,0.01003 0.1303237,0.03509 0.1904731,0.06516 0.090224,0.05012 0.1654109,0.07018 0.2506225,0.07018 l 0.050124,0 c 0.1102739,0 0.2205478,0.01504 0.3308217,0.0401 l 0.075187,0.02005 c 0.075187,0.02005 0.1503735,-0.01002 0.200498,-0.07017 0.015037,-0.02506 0.050124,-0.03008 0.070174,-0.01003 0.015037,0.01003 0.02005,0.02005 0.025062,0.03509 0.010025,0.100249 0.070174,0.175436 0.1503735,0.200498 l 0.080199,0.02506 c 0.085212,0.02506 0.1603984,0.0802 0.2105229,0.150374 0.050124,0.07519 0.1102739,0.150373 0.1804482,0.200498 l 0.050124,0.05012 c 0.050125,0.05012 0.1202988,0.07017 0.1904731,0.06516 l 0.2957346,0 c 0.1202988,0 0.2355852,0.02005 0.3508715,0.07018 0.1102739,0.05012 0.2255603,0.06015 0.3308218,0.02005 0.1102739,-0.03509 0.2255602,-0.05012 0.3408466,-0.03509 l 0.2155353,0.03509 c 0.1002488,0.01003 0.2004978,0.06015 0.2606478,0.135337 l 0.02506,0.02506 c 0.05012,0.05012 0.100249,0.115286 0.150373,0.18546 0.03008,0.06516 0.100249,0.100249 0.170424,0.100249 l 0.310772,0 c 0.07519,0 0.150372,0.01504 0.210522,0.05012 0.06516,0.05012 0.120298,0.100249 0.170423,0.150373 l 0.05012,0.06516 c 0.06015,0.07017 0.09022,0.165411 0.08521,0.26566 0,0.0802 0.06015,0.150374 0.140349,0.150374 l 0.100249,0.01003 c 0.07017,0 0.130323,0.05012 0.165411,0.115286 l 0.05012,0.100249 0.130324,0.290722 c 0.02005,0.05012 0.02506,0.100249 0.02005,0.140349 0,0.05012 0.01504,0.09022 0.05012,0.110274 l 0.05012,0.03509 c 0.06516,0.05012 0.100249,0.125311 0.09022,0.210523 l -0.03509,0.235585 -0.01002,0.100249 c -0.01002,0.05012 0.01504,0.115286 0.06015,0.150373 0.07519,0.05012 0.110274,0.115287 0.115286,0.190473 l 0,0.100249 c 0,0.05013 -0.01002,0.110274 -0.05012,0.150374 -0.03008,0.0401 -0.05012,0.09022 -0.05012,0.150374 l 0.01504,0.115286 c 0,0.0802 0.05012,0.150373 0.100249,0.200498 0.07017,0.05012 0.110274,0.130324 0.120299,0.210523 0.02005,0.125311 0.02506,0.22556 0.02506,0.325809 l 0,0.115286 c 0,0.0401 0,0.0802 0.01504,0.120299 0.01003,0.03509 0.03509,0.07017 0.06516,0.09022 l 0.100249,0.07519 c 0.100249,0.06516 0.170423,0.150374 0.210523,0.26566 0.05012,0.110274 0.06516,0.22556 0.06516,0.340847 l 0,0.0401 c 0,0.09022 -0.01002,0.185461 -0.0401,0.270673 -0.02506,0.09022 -0.02005,0.175435 0.01504,0.250622 0.0401,0.07017 0.06516,0.150374 0.07519,0.235585 0.02005,0.100249 0.01003,0.200498 -0.02506,0.280697 l -0.01002,0.03509 c -0.02506,0.06015 -0.06516,0.115286 -0.115286,0.160398 -0.05012,0.05012 -0.100249,0.0802 -0.130324,0.115286 -0.03008,0.03008 -0.05012,0.0802 -0.03509,0.125312 l 0.01504,0.07017 c 0.02506,0.100249 0.02506,0.200498 0,0.290722 l 0,0.0401 c -0.02005,0.07519 -0.05012,0.140348 -0.0802,0.200498 -0.03509,0.06516 -0.08521,0.115286 -0.150373,0.150373 l -0.07519,0.05013 c -0.03509,0.02005 -0.06015,0.06516 -0.06015,0.110274 0,0.05012 -0.02005,0.100249 -0.05012,0.130323 l -0.07519,0.100249 c -0.05012,0.06516 -0.115286,0.120299 -0.185461,0.150374 -0.07017,0.05012 -0.130323,0.100249 -0.175435,0.1503734 -0.05012,0.06015 -0.09022,0.130324 -0.110274,0.200498 -0.02005,0.09022 -0.09022,0.140349 -0.165411,0.140349 l -0.270672,0 c -0.07018,0 -0.135337,0.05012 -0.165411,0.110274 -0.03509,0.0802 -0.07018,0.135336 -0.115287,0.18546 -0.05012,0.05013 -0.0802,0.110274 -0.100248,0.180449 -0.01002,0.06015 -0.06015,0.100249 -0.110274,0.0802 -0.06516,-0.03008 -0.130323,0 -0.160398,0.05012 -0.06015,0.100249 -0.120299,0.175436 -0.185461,0.240598 l -0.03509,0.03008 c -0.06516,0.05012 -0.150373,0.09022 -0.22556,0.09022 -0.09022,0 -0.135336,0.0401 -0.150374,0.100249 -0.01504,0.05012 -0.02506,0.115286 -0.03008,0.170423 -0.01003,0.06015 -0.030075,0.115287 -0.050124,0.165411 l -0.025062,0.03008 c -0.050125,0.07519 -0.090224,0.150373 -0.1403486,0.215535 l -0.02005,0.03008 c -0.065162,0.08521 -0.1503735,0.150373 -0.2506225,0.175436 -0.1202988,0.0401 -0.2255603,0.05012 -0.3308218,0.05012 l -0.070174,0 c -0.050124,0 -0.100249,0.03008 -0.1353361,0.0802 l -0.030075,0.05013 -0.030075,0.06015 -0.065162,0.110274 c -0.050124,0.09022 -0.1253112,0.150374 -0.2255603,0.180448 -0.100249,0.02506 -0.2155353,0.03509 -0.3207968,0.03008 l -0.080199,-0.01002 c -0.070174,0 -0.1353361,-0.02005 -0.200498,-0.05012 -0.050124,-0.02005 -0.1202988,0 -0.1503735,0.05012 -0.050124,0.07017 -0.1102739,0.110274 -0.1754358,0.130324 l -0.1503735,0.05012 c -0.100249,0.02506 -0.2105229,0.02506 -0.3157844,0 l -0.080199,-0.02506 c -0.050124,0 -0.100249,-0.02506 -0.1403486,-0.05012 -0.050125,-0.02506 -0.100249,-0.03509 -0.1503735,-0.03008 l -0.065162,0.01003 c -0.100249,0.01002 -0.1904731,0 -0.2806973,-0.02506 L 6.3934,12.78873 C 6.3332506,12.76868 6.2781136,12.72858 6.2430265,12.673443 6.2179642,12.623319 6.1628273,12.583219 6.092653,12.573194 l -0.1603984,0 C 5.8320055,12.558157 5.7417814,12.52307 5.681632,12.447883 L 5.481134,12.25741 5.41096,12.19726 5.3006861,12.11706 5.2355241,12.06694 C 5.1603371,12.01681 5.0701132,11.97672 4.9748766,11.966691 l -0.300747,-0.05013 c -0.030075,0 -0.050124,-0.01002 -0.080199,-0.01504 l -0.1152864,-0.02506 c -0.050124,-0.01003 -0.100249,-0.05013 -0.1353361,-0.100249 -0.030075,-0.05012 -0.085212,-0.07017 -0.1353362,-0.05012 -0.100249,0.0401 -0.1804482,0.05012 -0.2606474,0.06516 l -0.070174,0 C 3.7468262,11.801277 3.6265274,11.781227 3.5062286,11.72609 3.3859298,11.675966 3.3057306,11.600779 3.2305438,11.505543 3.1703944,11.420331 3.0801703,11.355169 2.9698964,11.335119 l -0.1403486,-0.03008 c -0.100249,-0.02005 -0.200498,-0.06015 -0.2907221,-0.120298 -0.100249,-0.07017 -0.1503736,-0.135336 -0.1904732,-0.215536 -0.0401,-0.07519 -0.065162,-0.160398 -0.070174,-0.250622 l 0,-0.0401 c -0.010025,-0.100244 -0.080199,-0.190468 -0.175436,-0.21553 -0.1152864,-0.03509 -0.200498,-0.08521 -0.2756847,-0.150374 -0.070174,-0.06516 -0.110274,-0.160398 -0.110274,-0.260647 l 0.010025,-0.2205484 c 0,-0.08521 -0.025062,-0.160398 -0.085212,-0.215535 -0.060149,-0.06015 -0.100249,-0.135336 -0.100249,-0.215536 l -0.015037,-0.180448 c -0.010025,-0.130324 -0.035087,-0.260647 -0.065162,-0.390971 -0.030075,-0.115286 0.015037,-0.230573 0.1102739,-0.28571 l 0.035087,-0.02506 c 0.050124,-0.03509 0.070174,-0.100249 0.0401,-0.160398 l -0.0401,-0.05013 c -0.050124,-0.05012 -0.100249,-0.08521 -0.1503735,-0.100249 -0.0401,-0.01002 -0.050125,-0.05012 -0.050125,-0.07519 l 0.050125,-0.06015 c 0.030075,-0.03509 0.025062,-0.09022 0,-0.120299 -0.0401,-0.0401 -0.060149,-0.09022 -0.065162,-0.140348 l -0.010025,-0.350872 c 0,-0.07017 0.010025,-0.140349 0.030075,-0.210523 0.02005,-0.06015 0,-0.130324 -0.060149,-0.160398 z m 4.9623258,-0.661643 c 0.035087,-0.03509 0.030075,-0.100249 0,-0.125312 -0.050124,-0.0401 -0.085212,-0.08521 -0.1152864,-0.135336 l -0.050124,-0.0802 c -0.035087,-0.06516 -0.080199,-0.120299 -0.1303237,-0.170423 l -0.010025,-0.01003 c -0.050124,-0.0401 -0.085212,-0.09022 -0.1152863,-0.150374 -0.025062,-0.05012 -0.025062,-0.100249 0,-0.150373 l 0.030075,-0.05013 c 0.030075,-0.05012 0.050124,-0.120298 0.050124,-0.180448 l 0,-0.02005 c 0,-0.05012 -0.02005,-0.100249 -0.050124,-0.150373 -0.02005,-0.0401 -0.0401,-0.09022 -0.050125,-0.140349 l 0,-0.03007 c -0.015037,-0.06015 0,-0.125312 0.0401,-0.175436 0.0401,-0.06516 0.070174,-0.125311 0.085212,-0.200498 l 0,-0.01002 c 0.02005,-0.05012 0.010025,-0.115286 -0.02005,-0.165411 -0.030075,-0.05012 -0.0401,-0.100249 -0.02005,-0.160398 l 0.035087,-0.100249 c 0.030075,-0.09022 0.075187,-0.170424 0.1353361,-0.240598 l 0.070174,-0.07519 0.050124,-0.06015 0.030075,-0.03008 c 0.030075,-0.03008 0.035087,-0.0802 0.010025,-0.120299 -0.025062,-0.05012 -0.0401,-0.100249 -0.030075,-0.150373 l 0.010025,-0.07018 c 0.015037,-0.100249 0.050124,-0.200498 0.1152864,-0.280697 l 0.02005,-0.02005 c 0.075187,-0.100249 0.1704233,-0.16541 0.2806972,-0.200498 l 0.1353362,-0.05012 c 0.060149,-0.02005 0.100249,-0.08521 0.100249,-0.150374 0,-0.0802 0.025062,-0.150373 0.070174,-0.215535 l 0.025062,-0.02506 c 0.050124,-0.08521 0.1102739,-0.170423 0.1503735,-0.260648 l 0.035087,-0.06516 c 0.010025,-0.01504 0.015037,-0.03509 0.015037,-0.05013 0,-0.08521 -0.050124,-0.160398 -0.1303237,-0.165411 l -0.2205478,-0.01504 c -0.1253112,-0.01003 -0.2506225,0 -0.3709213,0 l -0.4260583,0.05012 c -0.065162,0 -0.1152863,0.05013 -0.1202988,0.120299 0,0.07017 -0.050124,0.130324 -0.1102739,0.150374 l -0.1804482,0.05012 -0.050124,0.01504 -0.1503735,0.05012 c -0.1102739,0.03509 -0.200498,0.115286 -0.2506225,0.22556 l -0.0401,0.06516 c -0.050124,0.110274 -0.1353361,0.200498 -0.2405976,0.26566 -0.100249,0.06516 -0.1503735,0.170423 -0.1603984,0.290722 l 0,0.05012 c -0.010025,0.100249 -0.0401,0.200498 -0.100249,0.270672 l -0.025062,0.0401 c -0.0401,0.05012 -0.050124,0.115286 -0.025062,0.170423 0.025062,0.06015 0.0401,0.125311 0.035087,0.190473 l 0,0.26566 c 0,0.07017 -0.050124,0.130324 -0.100249,0.150373 -0.070174,0.02506 -0.1152864,0.0802 -0.1353362,0.150374 l -0.025062,0.100249 c -0.02005,0.100249 0.015037,0.200498 0.100249,0.260647 0.080199,0.06015 0.1303238,0.150374 0.1503736,0.260648 l 0,0.09022 c 0.015037,0.100249 0.070174,0.200498 0.1603984,0.250622 0.090224,0.06015 0.1603984,0.150374 0.200498,0.250623 l 0.025062,0.0802 c 0.0401,0.110274 0.1303237,0.175436 0.2305728,0.185461 l 0.030075,0 c 0.090224,0 0.1704233,0.05012 0.2205478,0.130323 0.050124,0.0802 0.1303237,0.135337 0.2205478,0.150374 l 0.1403486,0.0401 c 0.085212,0.02506 0.1654109,0.07017 0.2305727,0.135336 l 0.010025,0.01003 c 0.050125,0.0401 0.1303237,0.03509 0.1754358,-0.02005 l 0.035087,-0.0401 z m 0.5714193,-0.461146 c 0.050124,0.03008 0.100249,0.01504 0.1202988,-0.03007 l 0.015037,-0.02506 c 0.035087,-0.07017 0.080199,-0.140348 0.1303237,-0.200498 l 0.100249,-0.150373 c 0.015037,0 0.02005,-0.01003 0.025062,-0.02005 l 0.1202989,-0.160398 c 0.050124,-0.05012 0.1102739,-0.08521 0.1804482,-0.08521 0.065162,0 0.1202988,-0.03509 0.1503735,-0.100249 0.02005,-0.07017 0.050124,-0.135336 0.1102739,-0.190473 l 0.025062,-0.03008 c 0.050124,-0.05012 0.100249,-0.07519 0.1503736,-0.100249 0.065162,-0.01003 0.1253112,-0.02005 0.1854606,-0.02005 l 0.1503735,0 c 0.060149,0 0.1102739,-0.02506 0.1403486,-0.07519 0.030075,-0.05012 0.075187,-0.08521 0.1253113,-0.110274 l 0.050124,-0.02005 c 0.080199,-0.03509 0.1704233,-0.06015 0.2606474,-0.07017 l 0.100249,-0.01003 c 0.060149,0 0.1253113,0 0.1854607,0.03509 0.050125,0.03509 0.1152863,0.03008 0.1654108,-0.01003 l 0.035087,-0.02005 c 0.075187,-0.05012 0.1603984,-0.09022 0.2506225,-0.100249 l 0.010025,0 c 0.100249,-0.02005 0.1904731,-0.02005 0.2907221,-0.01504 l 0.050124,0 c 0.100249,0.01504 0.185461,0.05012 0.250623,0.125311 l 0.01504,0.02005 c 0.05012,0.05012 0.130324,0.09022 0.200498,0.09022 l 0.08521,0 c 0.02506,0 0.05012,-0.01003 0.06516,-0.03509 0.01504,-0.01504 0.0401,-0.03007 0.06516,-0.03007 l 0.05012,0 c 0.07017,0 0.135336,0.02005 0.200498,0.0401 l 0.08521,0.03509 c 0.0802,0.02506 0.165411,0.05012 0.250623,0.06015 l 0.06015,0 c 0.0401,0 0.06516,-0.02506 0.06516,-0.06015 0,-0.05013 -0.01003,-0.100249 -0.03509,-0.140349 l -0.03509,-0.0802 c -0.0401,-0.06516 -0.07018,-0.135336 -0.100249,-0.200498 l -0.01003,-0.02506 c -0.02506,-0.05012 -0.02506,-0.100249 0,-0.150374 l 0,-0.02506 c 0.01003,-0.0401 -0.01003,-0.08521 -0.05012,-0.100249 l -0.0401,0 c -0.0802,-0.02506 -0.150374,-0.07017 -0.200498,-0.135336 l -0.05012,-0.05012 c -0.05012,-0.05012 -0.0802,-0.125311 -0.100249,-0.200498 -0.02506,-0.06516 -0.0802,-0.115286 -0.150374,-0.115286 l -0.210522,0 c -0.07517,-0.01003 -0.140337,-0.05013 -0.18545,-0.110277 l -0.02005,-0.02506 c -0.03509,-0.05012 -0.06516,-0.110274 -0.08521,-0.170424 -0.02506,-0.05012 -0.0802,-0.0802 -0.130323,-0.06516 l -0.060149,0.02005 c -0.100249,0.03509 -0.200498,0.05012 -0.300747,0.0401 l -0.080199,-0.01002 c -0.085212,0 -0.1654108,-0.03509 -0.2305727,-0.08521 l -0.050125,-0.03509 c -0.0401,-0.03007 -0.080199,-0.05012 -0.1253113,-0.07017 -0.050124,-0.02005 -0.090224,-0.01003 -0.1202988,0.02506 l -0.025062,0.03008 c -0.050126,0.05012 -0.1202994,0.09022 -0.1904737,0.100249 l -0.2706724,0.01504 c -0.050124,0 -0.100249,0.02506 -0.1353361,0.06015 -0.0401,0.03509 -0.085212,0.06015 -0.1353362,0.07017 l -0.010025,0 c -0.050124,0 -0.100249,0.03509 -0.1503735,0.07017 l 0,0.01003 c -0.050124,0.05012 -0.1152863,0.07519 -0.1804482,0.07519 l -0.02005,0.01003 c -0.060149,0 -0.1202988,0 -0.1804482,0.01504 l -0.060149,0 c -0.085212,0.01504 -0.1503735,0.08521 -0.1704233,0.175436 l -0.02005,0.115286 c -0.015037,0.0802 -0.050124,0.150374 -0.100249,0.215536 -0.050124,0.06015 -0.110274,0.100249 -0.1854607,0.100249 l -0.075187,0 -0.010025,0 c -0.050124,0.01003 -0.100249,0.06516 -0.090224,0.125311 0.010025,0.08521 0,0.160398 -0.015037,0.235585 l -0.02005,0.08521 c -0.02005,0.07519 -0.070174,0.135336 -0.1353362,0.160398 l -0.030075,0.01504 -0.010025,0 c -0.030075,0.02005 -0.050125,0.06516 -0.025062,0.100249 0.030075,0.05012 0.0401,0.100249 0.035087,0.150373 l -0.015037,0.160372 c 0,0.06015 -0.025062,0.115287 -0.050125,0.165411 -0.030075,0.05012 -0.030075,0.100249 -0.010025,0.150374 l 0.050124,0.110274 c 0.025062,0.05012 0.030075,0.100249 0.015037,0.160398 -0.015037,0.05013 -0.025062,0.100249 -0.02005,0.150374 0,0.05012 0.030075,0.100249 0.070174,0.120299 l 0.010025,0.01002 z m 3.9598359,3.624002 c 0.05013,0.05012 0.125311,0.07017 0.18546,0.03007 l 0.100249,-0.06516 c 0.05012,-0.03509 0.09022,-0.08521 0.110274,-0.150374 l 0,-0.01003 0.05013,-0.150373 0.03007,-0.05013 0.02005,-0.05012 0.02005,-0.03509 c 0.02005,-0.0401 0.05012,-0.07017 0.100249,-0.08521 l 0.02005,-0.01002 c 0.0401,-0.01003 0.06516,-0.05012 0.06516,-0.09022 0,-0.05012 0.02506,-0.09022 0.05012,-0.125311 l 0.0401,-0.03509 0.100249,-0.130324 0,-0.01002 c 0.03007,-0.0401 0.05012,-0.08521 0.06015,-0.135336 0.01002,-0.05012 0,-0.100249 -0.02005,-0.150374 l -0.01002,-0.02005 c -0.02005,-0.05012 -0.03007,-0.08521 -0.03509,-0.130324 l -0.01504,-0.140349 -0.01504,-0.150373 c 0,-0.05012 0.02005,-0.100249 0.05012,-0.150374 0.03509,-0.0401 0.06015,-0.09022 0.0802,-0.140348 l 0,-0.02005 0.01003,-0.01002 c 0.01003,-0.05013 -0.01504,-0.100249 -0.06015,-0.100249 -0.05012,-0.02506 -0.100249,-0.06516 -0.115287,-0.125311 l -0.01504,-0.03008 c -0.02506,-0.09022 -0.0401,-0.180448 -0.0401,-0.270672 l 0.01002,-0.250623 0,-0.01504 c 0,-0.08521 -0.07017,-0.150374 -0.150373,-0.150374 l -0.01002,0 c -0.100249,0 -0.180448,-0.03007 -0.250623,-0.100249 l -0.0401,-0.05012 -0.100249,-0.115287 -0.130323,-0.150373 c -0.05012,-0.07017 -0.100249,-0.130324 -0.165411,-0.190473 -0.05013,-0.05013 -0.125312,-0.100249 -0.200498,-0.110274 l -0.100249,-0.01504 c -0.05012,-0.01002 -0.115287,-0.03509 -0.170424,-0.07017 -0.0401,-0.03008 -0.100249,-0.02005 -0.140348,0.02005 l -0.06516,0.07017 -0.03008,0.02005 c -0.03509,0.01003 -0.070174,-0.01002 -0.085212,-0.05012 -0.02005,-0.06015 -0.02005,-0.130324 0.010025,-0.190474 l 0,-0.03007 c 0,-0.03509 -0.030075,-0.06015 -0.060149,-0.05013 l -0.080199,0 c -0.090224,0 -0.1804482,-0.01002 -0.2656598,-0.05012 l -0.050122,-0.02005 c -0.050124,-0.02506 -0.1102739,-0.0401 -0.1654109,-0.0401 -0.050124,0 -0.100249,0.01002 -0.1503735,0.0401 l -0.02005,0.01504 c -0.060149,0.0401 -0.1303237,0.06015 -0.200498,0.06516 l -0.1654109,0 c -0.075187,0 -0.1503735,0.02506 -0.200498,0.06516 -0.065162,0.0401 -0.1353362,0.06516 -0.2105229,0.0802 l -0.1353362,0.02005 c -0.060149,0.01504 -0.1253112,0.0401 -0.1804482,0.08521 -0.050124,0.05012 -0.1202988,0.0802 -0.1854607,0.100249 l -0.025062,0.01002 c -0.080199,0.02506 -0.1503735,0.07519 -0.200498,0.150373 l -0.060149,0.06015 c -0.035087,0.05012 -0.035087,0.110274 0,0.160399 0.030075,0.05012 0.090224,0.06516 0.1503735,0.05012 l 0.075187,-0.03007 c 0.0401,-0.01504 0.085212,0 0.1202988,0.02005 0.030075,0.02506 0.075187,0.0401 0.1202989,0.03509 l 0.1253112,-0.01504 c 0.070174,0 0.1403486,0 0.2105229,0.02005 0.075187,0.02506 0.1403486,0.05013 0.200498,0.100249 0.06015,0.05012 0.1253113,0.07017 0.2004981,0.0802 0.075187,0.01002 0.1503735,0.02506 0.2205478,0.05012 l 0.050124,0.01002 c 0.050125,0.01504 0.090224,0.05012 0.1202988,0.100249 0.025062,0.0401 0.050124,0.100249 0.050124,0.150373 l 0,0.01504 c 0,0.06015 0.050125,0.100249 0.100249,0.100249 l 0.030075,0 c 0.080199,0 0.1654109,0.01002 0.2506225,0.03509 l 0.035087,0.01504 c 0.050125,0.02005 0.100249,0.05012 0.1353361,0.100249 0.0401,0.05013 0.065162,0.100249 0.080199,0.150374 l 0.015037,0.07017 c 0.015037,0.07519 0.02005,0.150373 0.02005,0.230573 l 0,0.02506 c 0,0.05012 0.035087,0.100249 0.090224,0.120299 0.05013,0.01002 0.110274,0.03007 0.165411,0.06015 l 0.02506,0.01002 c 0.06516,0.0401 0.130324,0.09022 0.180448,0.150374 l 0.02506,0.03509 c 0.06516,0.07519 0.100249,0.170423 0.100249,0.26566 l 0,0.03509 c 0,0.07519 -0.01504,0.150373 -0.0401,0.220547 -0.02005,0.06015 0,0.130324 0.06516,0.150374 l 0.03509,0.02506 c 0.07519,0.03008 0.140349,0.08521 0.190473,0.150374 0.05012,0.07519 0.07017,0.160398 0.07017,0.250622 l 0,0.150374 c -0.01002,0.05012 -0.02506,0.09022 -0.05012,0.125311 -0.02506,0.03509 -0.02506,0.08521 0,0.120299 l 0.03008,0.05012 z m -3.2079683,-2.566375 -0.010025,0 c -0.02005,0 -0.030075,0.02506 -0.025062,0.05012 l 0.02005,0.100249 c 0.02005,0.0802 0.030075,0.160398 0.0401,0.240597 0.010025,0.0802 0.050125,0.150374 0.1102739,0.200498 l 0.02005,0 c 0.075187,0.06015 0.1202988,0.150374 0.1253113,0.240598 l 0,0.250623 c -0.010025,0.05012 0,0.100249 0.030075,0.140348 l 0.025062,0.02506 c 0.050125,0.06015 0.070174,0.130324 0.075187,0.200498 l 0.015037,0.275685 c 0,0.06516 -0.0401,0.120299 -0.1002491,0.130324 l -0.050124,0.01003 c -0.035087,0 -0.050124,0.0401 -0.050124,0.07519 0,0.0401 0.015037,0.08521 0.030075,0.125311 l 0,0.01002 c 0.015037,0.05012 0.02005,0.100249 0.015037,0.150373 l -0.02005,0.135336 c -0.02005,0.100249 -0.050124,0.190474 -0.100249,0.280698 l -0.035087,0.06015 c -0.025062,0.05012 -0.060149,0.0802 -0.100249,0.100249 -0.050124,0.02005 -0.085212,0.06015 -0.100249,0.110274 l -0.0401,0.1804484 c -0.025062,0.100249 -0.070174,0.200498 -0.1303237,0.300747 l -0.010025,0 c -0.060149,0.0802 -0.1353362,0.150374 -0.2255603,0.200498 l -0.060149,0.0401 -0.1503735,0.07519 c -0.050124,0.02005 -0.080199,0.06516 -0.090224,0.120298 l -0.025062,0.165411 c -0.015037,0.100249 -0.050124,0.185461 -0.1202988,0.250623 l -0.065162,0.07519 -0.075187,0.07519 -0.075187,0.0802 C 6.4234765,11.57572 6.333252,11.605799 6.233003,11.59076 l -0.1804482,-0.03509 -0.1654109,-0.02005 -0.045112,0 c -0.02005,0.02005 -0.025062,0.05012 -0.010025,0.0802 0.035087,0.06015 0.090224,0.100249 0.1503736,0.100249 l 0.1102739,0.02005 c 0.050124,0 0.1102739,0.02506 0.1603984,0.05013 0.050124,0.03509 0.100249,0.06015 0.1603984,0.07519 l 0.010025,0 c 0.065162,0.02506 0.1353361,0.03008 0.200498,0.02506 l 0.075187,-0.01002 c 0.085212,-0.01003 0.1654108,0 0.2355851,0.03008 l 0.060149,0.02005 c 0.025062,0.01002 0.065162,0 0.090224,-0.02506 0.030075,-0.03008 0.060149,-0.05012 0.100249,-0.06516 l 0.0401,-0.01002 c 0.065162,-0.02005 0.1303238,-0.03007 0.2004981,-0.03007 l 0.0401,0 c 0.060149,0 0.1152863,0.01002 0.1654108,0.0401 l 0.02005,0.01003 c 0.035087,0.01504 0.075187,0 0.100249,-0.03008 0.015037,-0.03509 0.050124,-0.07017 0.085212,-0.100249 l 0.1253112,-0.08521 0.080199,-0.05013 0.0401,-0.02506 c 0.050124,-0.03509 0.1202988,-0.05012 0.1804482,-0.05012 l 0.1804482,-0.01504 c 0.070174,-0.01003 0.1303237,-0.06015 0.1503735,-0.130324 0.02005,-0.07519 0.050124,-0.150373 0.100249,-0.215535 0.050124,-0.06516 0.100249,-0.120299 0.1503735,-0.170423 0.065162,-0.05013 0.1303237,-0.07519 0.200498,-0.0802 l 0.0401,0 c 0.080199,-0.01504 0.1403486,-0.09023 0.1353362,-0.170424 l 0,-0.01002 0,-0.325809 C 9.23045,10.337685 9.2505,10.272519 9.280574,10.222394 l 0.100249,-0.150373 0.0401,-0.05013 c 0.030075,-0.02506 0.050124,-0.06015 0.085212,-0.1002494 l 0.050124,-0.06516 C 9.586334,9.8063616 9.586334,9.7411956 9.546234,9.6960836 9.496109,9.6459536 9.471047,9.5757846 9.461022,9.5056106 l 0,-0.02005 c -0.010025,-0.0802 -0.010025,-0.165411 0.015037,-0.250623 l 0,-0.02506 c 0.025062,-0.06516 0.060149,-0.130323 0.100249,-0.190473 0.0401,-0.05012 0.035087,-0.120299 -0.015037,-0.160398 L 9.476059,8.7838166 C 9.405885,8.7236666 9.365785,8.6334426 9.3557601,8.5432186 l -0.010025,-0.100249 c 0,-0.03007 0,-0.06516 -0.010025,-0.100249 l -0.010027,-0.075221 c -0.010025,-0.08521 -0.060149,-0.150374 -0.1303237,-0.200498 l -0.035087,-0.01003 c -0.050125,-0.03008 -0.100249,-0.07519 -0.1403486,-0.135336 -0.0401,-0.05013 -0.060149,-0.120299 -0.075187,-0.190474 l -0.015037,-0.08521 c 0,-0.03008 -0.02005,-0.05013 -0.050124,-0.06516 l -0.080199,-0.02506 -0.1603985,-0.05013 c -0.050124,-0.01002 -0.100249,-0.05012 -0.1353361,-0.08521 l -0.010025,0 c -0.030075,-0.0401 -0.080199,-0.0401 -0.1102739,-0.01002 l -0.050124,0.05012 c -0.010025,0.01504 -0.02005,0.02005 -0.035087,0.01504 -0.030075,0 -0.050124,-0.02506 -0.0401,-0.05012 0.010025,-0.0802 -0.02005,-0.160398 -0.085212,-0.210523 L 8.107658,7.1647596 7.9572845,7.0645106 c -0.0401,-0.01504 -0.100249,0 -0.1202988,0.05012 l -0.02005,0.03008 c 0,0.01002 -0.015037,0.01504 -0.02005,0.02005 -0.02005,0 -0.050124,0 -0.050124,-0.02506 l -0.015037,-0.02506 c -0.015037,-0.03008 -0.050124,-0.05012 -0.080199,-0.06015 z m -0.6014941,0.501245 -0.025062,-0.02506 c -0.025062,-0.02005 -0.050124,-0.01504 -0.075187,0.01002 -0.035087,0.06015 -0.065162,0.125311 -0.080199,0.190473 l 0,0.01002 c -0.015037,0.06516 -0.075187,0.110274 -0.1353361,0.100249 l -0.050124,0 -0.010025,0 c -0.070174,0 -0.1253113,0.06015 -0.1253113,0.130324 0,0.09022 -0.030075,0.180448 -0.085212,0.250622 l -0.030075,0.030083 c -0.050124,0.06516 -0.1253112,0.110274 -0.200498,0.135336 l -0.0401,0.01002 c -0.050124,0.01504 -0.090224,0.05013 -0.100249,0.110274 0,0.05012 -0.030075,0.100249 -0.070174,0.140349 l -0.050124,0.0401 c -0.060149,0.06516 -0.1503735,0.100249 -0.2405976,0.110274 l -0.2506225,0.02506 c -0.080199,0 -0.1503735,0.05013 -0.200498,0.125312 -0.050124,0.07519 -0.1253113,0.125311 -0.2004981,0.135336 l -0.1102739,0.01002 c -0.080199,0.01003 -0.1654108,0.01003 -0.2506225,-0.01002 l -0.050124,-0.01002 -0.1353361,-0.03509 c -0.050125,-0.01504 -0.090224,0 -0.1202989,0.03509 l -0.050124,0.06516 c -0.065162,0.07519 -0.1603984,0.110274 -0.2506225,0.100249 l -0.3258093,-0.0401 c -0.050125,0 -0.090224,-0.02506 -0.1353361,-0.05012 -0.050124,-0.03008 -0.085212,-0.06516 -0.1202988,-0.100249 L 3.3909422,8.8740056 c -0.015037,-0.01002 -0.0401,-0.01504 -0.065162,-0.01002 l -0.070174,0.03008 -0.2806973,0.07017 c -0.050124,0.01504 -0.1152863,0 -0.1654108,-0.03008 -0.050124,-0.0401 -0.1102739,-0.05012 -0.1704233,-0.05012 l -0.065162,0 c -0.060149,0.01504 -0.100249,0.0802 -0.080199,0.140349 l 0.02005,0.100249 c 0.015037,0.05012 0.010025,0.110273 -0.015037,0.160398 -0.025062,0.05012 -0.02005,0.100249 0.015037,0.150374 l 0.030075,0.0401 c 0.0401,0.06015 0.100249,0.110274 0.1503735,0.160399 0.050124,0.05012 0.100249,0.100249 0.1403486,0.16541 l 0.075187,0.135337 c 0.0401,0.07017 0.100249,0.1102734 0.1804482,0.1102734 0.075187,0 0.1503735,0.02506 0.2105229,0.07519 l 0.1503735,0.140349 c 0.0401,0.03509 0.100249,0.0401 0.1403486,0.01002 l 0.025062,-0.01002 c 0.030075,0 0.050124,0.02005 0.050124,0.05012 l 0,0.02506 c 0,0.06516 0.050124,0.125311 0.1152863,0.150373 l 0.2255603,0.05013 c 0.080199,0.02506 0.1603984,0.05012 0.2355852,0.100249 l 0.0401,0 c 0.0401,0 0.075187,-0.03509 0.070174,-0.0802 l 0,-0.175435 c 0,-0.05013 0.02005,-0.100249 0.060149,-0.120299 l 0.025062,-0.01003 c 0.025062,0.01003 0.050124,0.03008 0.0401,0.05012 l 0,0.08521 c 0,0.06516 0.02005,0.125311 0.065162,0.170423 0.050124,0.05012 0.1152864,0.06015 0.1704233,0.0401 0.060149,-0.02506 0.1202988,-0.03008 0.1854607,-0.02506 l 0.1854606,0.01002 c 0.090224,0.01002 0.1754358,0 0.2506226,-0.03509 0.090224,-0.03007 0.1654108,-0.07017 0.2355851,-0.125311 l 0.030075,-0.02005 0.1503735,-0.135336 c 0.050124,-0.05012 0.1152864,-0.07519 0.1754358,-0.07519 l 0.200498,0 c 0.100249,-0.01002 0.1904731,-0.100249 0.200498,-0.2004984 l 0.02005,-0.10025 c 0,-0.06516 0.030075,-0.125311 0.075187,-0.175435 0.050124,-0.05013 0.100249,-0.0802 0.1503735,-0.100249 l 0.060149,-0.02506 c 0.085212,-0.03509 0.1503735,-0.110273 0.1804482,-0.200498 l 0.030075,-0.120298 c 0.025062,-0.100249 0.075187,-0.200498 0.1503735,-0.26566 l 0.010025,-0.01003 c 0.060149,-0.05012 0.070174,-0.150374 0.030075,-0.220548 l -0.015037,-0.03509 c -0.035087,-0.05013 -0.0401,-0.125311 -0.015037,-0.190473 0.025062,-0.07017 0.050124,-0.130324 0.090224,-0.190473 l 0.050124,-0.07017 c 0.02005,-0.0401 0.02005,-0.100249 -0.010025,-0.135336 -0.030075,-0.0401 -0.050124,-0.09022 -0.050124,-0.140348 l -0.010025,-0.07017 0,-0.170423 c 0.010025,-0.05013 0,-0.115286 -0.015037,-0.165411 l -0.02005,-0.06015 z m -0.7167804,-0.380946 0,-0.01504 c 0,-0.05013 -0.030075,-0.0802 -0.070174,-0.0802 l -0.1303237,0 c -0.050124,0.01002 -0.100249,0.01002 -0.1403486,0 l -0.2255603,0 c -0.1152863,0 -0.2255602,-0.02005 -0.3358341,-0.05013 L 5.2956734,6.9742866 5.1954244,6.9442126 4.9698641,6.8690256 C 4.8495653,6.8339386 4.7593412,6.7537396 4.7042042,6.6434656 l -0.025062,-0.05012 c -0.035087,-0.07519 -0.1102739,-0.115286 -0.1854607,-0.100249 -0.085212,0 -0.1704233,0 -0.2506225,-0.0401 l -0.06015,-0.025067 C 4.067623,6.3778056 3.9824114,6.2775566 3.9824114,6.1422206 l -0.02005,-0.135337 C 3.9473242,5.9367096 3.9022122,5.8715476 3.8420628,5.8464856 3.7718884,5.8164106 3.7067266,5.7763116 3.6415647,5.7311996 l -0.025062,-0.01504 c -0.075187,-0.06015 -0.1403488,-0.140346 -0.175436,-0.235583 l -0.010025,-0.03008 c -0.025062,-0.0802 -0.030075,-0.16541 -0.010025,-0.250622 l 0.010025,-0.03008 c 0.02005,-0.06516 0.025062,-0.130323 0.025062,-0.200498 0,-0.06015 -0.025062,-0.120299 -0.070174,-0.165411 l -0.070174,-0.06516 c -0.080199,-0.065153 -0.1303239,-0.16039 -0.1353364,-0.265651 -0.010025,-0.110274 -0.010025,-0.215536 0.010025,-0.320797 l 0,-0.01504 0,-0.01504 c 0,-0.06015 -0.050124,-0.100249 -0.100249,-0.100249 l -0.015037,0 c -0.065162,0 -0.1202988,0.0401 -0.1503735,0.100249 -0.025062,0.07017 -0.065162,0.125311 -0.1102739,0.180448 l -0.02005,0.02506 -0.100249,0.100249 -0.050125,0.05012 c -0.050124,0.05012 -0.080199,0.125311 -0.090224,0.200498 -0.010025,0.07519 -0.030075,0.150374 -0.060149,0.220548 l -0.010025,0.02506 c -0.025062,0.06015 -0.065162,0.115287 -0.1152864,0.150374 -0.050124,0.0401 -0.085212,0.100249 -0.085212,0.160398 l -0.010025,0.230573 c 0,0.100249 -0.015037,0.200498 -0.050124,0.300747 l -0.010025,0.0401 c -0.025062,0.06516 0,0.135337 0.060149,0.165411 l 0.2105229,0.09022 0.02005,0.01002 c 0.015037,0 0.02005,0.01003 0.025062,0.02506 0.015037,0.02005 0,0.05012 -0.015037,0.05012 l -0.050125,0.02506 c -0.030075,0.01002 -0.050124,0.0401 -0.060149,0.07519 l -0.010025,0.05013 0,0.01002 -0.050124,0.280698 c -0.010025,0.0401 -0.010025,0.08521 -0.010025,0.130323 0,0.0401 0.025062,0.07519 0.060149,0.09023 l 0.1102739,0.05012 c 0.050125,0.03008 0.1102739,0.06516 0.1503735,0.100249 l 0.050124,0.0401 c 0.015037,0.02005 0.0401,0.0401 0.060149,0.05012 l 0.02005,0.02005 c 0.035087,0.03008 0.060149,0.07017 0.070174,0.115286 l 0.050125,0.225561 c 0,0.06015 0.050125,0.110273 0.100249,0.125311 l 0.080199,0.02506 c 0,0 0.015037,0 0.025062,0.01003 l 0.100249,0.03008 c 0.080199,0.02506 0.1503735,0.07017 0.2105229,0.130323 0.060149,0.05012 0.1202988,0.115287 0.1704233,0.185461 l 0.02005,0.02005 c 0.0401,0.05012 0.100249,0.07519 0.1603984,0.06015 0.060149,-0.01504 0.1253113,-0.02005 0.1904732,-0.02005 l 0.075187,0 c 0.050124,0 0.1152864,0.01504 0.1704233,0.05012 0.050124,0.03008 0.1152864,0.05012 0.1754358,0.07519 l 0.015037,0 c 0.060149,0.02506 0.1253113,0.01504 0.1754358,-0.02005 0.050125,-0.0401 0.1152864,-0.06015 0.1804482,-0.06015 l 0.2355852,0.01504 c 0.050124,0 0.100249,-0.01003 0.1253112,-0.05013 l 0.010025,0 0.085212,-0.0802 0.025062,-0.02506 c 0.0401,-0.05013 0.100249,-0.07017 0.1603984,-0.07519 l 0.2255602,0 c 0.060149,0 0.1152864,-0.05012 0.1403486,-0.100249 0.025062,-0.05012 0.075187,-0.09022 0.1353362,-0.100249 l 0.100249,-0.02005 c 0.0401,0 0.075187,-0.03509 0.090224,-0.0802 0.015037,-0.05012 0.0401,-0.09022 0.075187,-0.120299 l 0.080199,-0.0802 c 0.050124,-0.05012 0.075187,-0.100249 0.085212,-0.160398 z"></path></g>
</symbol>
</svg>
